<?xml version="1.0" encoding="utf-8"?>
<!-- Generator: Adobe Illustrator 21.1.0, SVG Export Plug-In . SVG Version: 6.00 Build 0)  -->
<svg version="1.1" id="Layer_1" xmlns="http://www.w3.org/2000/svg" xmlns:xlink="http://www.w3.org/1999/xlink" x="0px" y="0px"
	 viewBox="0 0 150 150" style="enable-background:new 0 0 150 150;" xml:space="preserve">
<style type="text/css">
	.st0{fill:#333333;stroke:#333333;stroke-width:0.9827;stroke-miterlimit:10;}
	.st1{fill:#FFFFFF;stroke:#FFFFFF;stroke-miterlimit:10;}
</style>
<circle class="st0" cx="75" cy="75" r="73.7"/>
<path id="XMLID_6_" class="st1" d="M101.6,87.7L88.4,74.9l12.9-13.2c1.8-1.9,1.7-4.8-0.1-6.5l-7-6.9c-1.9-1.8-4.8-1.7-6.5,0.1
	L74.9,61.6L61.7,48.7c-1.9-1.8-4.8-1.7-6.5,0.1l-6.9,7c-1.8,1.9-1.7,4.8,0.1,6.5l13.2,12.9L48.7,88.3c-1.8,1.9-1.7,4.8,0.1,6.5
	l7,6.9c1.9,1.8,4.8,1.7,6.5-0.1l12.9-13.2l13.2,12.9c1.9,1.8,4.8,1.7,6.5-0.1l6.9-7C103.4,92.4,103.4,89.5,101.6,87.7z"/>
</svg>
