<?xml version="1.0" encoding="utf-8"?>
<!-- Generator: Adobe Illustrator 21.1.0, SVG Export Plug-In . SVG Version: 6.00 Build 0)  -->
<svg version="1.1" id="Layer_1" xmlns="http://www.w3.org/2000/svg" xmlns:xlink="http://www.w3.org/1999/xlink" x="0px" y="0px"
	 viewBox="0 0 150 150" style="enable-background:new 0 0 150 150;" xml:space="preserve">
<style type="text/css">
	.st0{fill:#333333;}
</style>
<g id="XMLID_2_">
	<path id="XMLID_3_" class="st0" d="M146.6,16.5L146.6,16.5H3.4c-0.4,0-0.9,0-1.1,0.3l72,67.4L146.6,16.5z"/>
	<path id="XMLID_6_" class="st0" d="M149.8,130.2c0.2-0.6,0.2-1.2,0.2-1.8V21.5c0-0.6,0-1.2-0.2-1.8l-48.3,44.9L149.8,130.2z"/>
	<path id="XMLID_7_" class="st0" d="M0,20.7c0,0.3,0,0.6,0,0.9v106.9c0,0.3,0,0.6,0,0.9L47.4,65L0,20.7z"/>
	<path id="XMLID_8_" class="st0" d="M74.4,90.1L74.4,90.1L74.4,90.1L50.6,68L2.4,133.2c0.4,0.3,0.9,0.3,1.3,0.3h142.9
		c0.2,0,0.2,0,0.4,0L98.5,67.7L74.4,90.1z"/>
</g>
</svg>
