<?xml version="1.0" encoding="utf-8"?>
<!-- Generator: Adobe Illustrator 19.0.0, SVG Export Plug-In . SVG Version: 6.00 Build 0)  -->
<svg version="1.1" id="Layer_1" xmlns="http://www.w3.org/2000/svg" xmlns:xlink="http://www.w3.org/1999/xlink" x="0px" y="0px"
	 viewBox="0 0 50 50" style="enable-background:new 0 0 50 50;" xml:space="preserve">
<style type="text/css">
	.st0{fill:none;stroke:#333;stroke-miterlimit:10;}
</style>
<circle id="XMLID_1_" class="st0" cx="25" cy="25" r="23.9"/>
<path id="XMLID_3_" d="M27.7,34c0,0.8-0.9,1.5-2,1.5h-1.4c-1.1,0-2-0.7-2-1.5L20,8.7c0-0.8,0.9-1.5,2-1.5h6c1.1,0,2,0.7,2,1.5
	L27.7,34z" fill="white"/>
<path id="XMLID_2_" d="M27.8,40.8c0,1.1-0.7,2-1.5,2h-2.4c-0.8,0-1.5-0.9-1.5-2v-0.9c0-1.1,0.7-2,1.5-2h2.4c0.8,0,1.5,0.9,1.5,2
	V40.8z" fill="white"/>
</svg>
