<?xml version="1.0" encoding="utf-8"?>
<!-- Generator: Adobe Illustrator 21.1.0, SVG Export Plug-In . SVG Version: 6.00 Build 0)  -->
<svg version="1.1" id="Layer_1" xmlns="http://www.w3.org/2000/svg" xmlns:xlink="http://www.w3.org/1999/xlink" x="0px" y="0px"
	 viewBox="0 0 150 150" style="enable-background:new 0 0 150 150;" xml:space="preserve">
<style type="text/css">
	.st0{fill:#333333;}
</style>
<g id="XMLID_2_">
	<path id="XMLID_4_" class="st0" d="M142.5,0H7.5C3.4,0,0,3.4,0,7.5v135c0,4.1,3.4,7.5,7.5,7.5h74.6V90.8H61.6V71.9h20.5V54.6l0,0
		c0-12.1,9.8-21.8,21.8-21.8h23.9v21.8h-16.1c-4.3,0-7.8,3.5-7.8,7.8v9.5h23.9l-3.1,18.9H104V150h38.5c4.1,0,7.5-3.4,7.5-7.5V7.5
		C150,3.4,146.6,0,142.5,0z"/>
</g>
</svg>
