<?xml version="1.0" encoding="utf-8"?>
<!-- Generator: Adobe Illustrator 21.1.0, SVG Export Plug-In . SVG Version: 6.00 Build 0)  -->
<svg version="1.1" id="Layer_1" xmlns="http://www.w3.org/2000/svg" xmlns:xlink="http://www.w3.org/1999/xlink" x="0px" y="0px"
	 viewBox="0 0 150 150" style="enable-background:new 0 0 150 150;" xml:space="preserve">
<style type="text/css">
	.st0{fill:none;}
	.st1{fill:#333333;}
</style>
<g id="XMLID_3_">
	<polygon id="XMLID_4_" class="st0" points="106,65.6 100.1,65.6 100.1,74.4 91.2,74.4 91.2,80.4 100.1,80.4 100.1,89.2 106,89.2 
		106,80.4 114.9,80.4 114.9,74.4 106,74.4 	"/>
	<path id="XMLID_6_" class="st0" d="M69.5,79.6h-8.1l0,0h11.7c0,1.8-0.5,3.5-1.4,5.1s-2,3.1-3.5,4.3c-1.4,1.3-3,2.2-4.7,2.9
		c-1.7,0.7-3.5,1-5.3,1c-2.4,0-4.6-0.5-6.8-1.5s-4-2.4-5.7-4.2c-1.6-1.8-2.9-3.8-3.8-6s-1.3-4.5-1.3-6.8c0-2.5,0.5-4.8,1.4-7.1
		c0.9-2.2,2.2-4.2,3.8-5.9s3.6-3,5.8-4c2.2-0.9,4.6-1.4,7-1.4c2.7,0,5.4,0.7,7.9,2c1.6,0.8,2.9,1.8,4.1,3l4-3.7
		c-1.8-1.7-3.8-3-6-4.1c-3.3-1.5-6.7-2.3-10.2-2.3c-3.2,0-6.2,0.6-9.1,1.8s-5.4,2.9-7.5,5.1c-2.2,2.2-3.8,4.7-5,7.6S35,71.3,35,74.5
		c0,3.1,0.6,6,1.8,8.9c1.2,2.8,2.8,5.4,4.9,7.6c2.1,2.2,4.5,3.9,7.3,5.2c2.8,1.2,5.7,1.9,8.8,1.9s5.9-0.5,8.6-1.6
		c2.6-1.1,4.9-2.7,6.8-4.7s3.4-4.3,4.4-7s1.6-5.6,1.6-8.6v-1.8h-9.8v5.2H69.5z"/>
	<path id="XMLID_14_" class="st1" d="M142.5,0H7.5C3.4,0,0,3.4,0,7.5v135c0,4.1,3.4,7.5,7.5,7.5H58h24.1H104h30.8h7.8
		c4.1,0,7.5-3.4,7.5-7.5V7.5C150,3.4,146.6,0,142.5,0z M79.3,76.3c0,3.1-0.5,6-1.6,8.6c-1,2.7-2.5,5-4.4,7s-4.2,3.6-6.8,4.7
		c-2.6,1.1-5.5,1.6-8.6,1.6s-6-0.6-8.8-1.9c-2.8-1.2-5.3-3-7.3-5.2c-2.1-2.2-3.7-4.7-4.9-7.6c-1.2-2.8-1.8-5.8-1.8-8.9
		c0-3.2,0.6-6.2,1.8-9.1s2.9-5.4,5-7.6c2.2-2.2,4.7-3.9,7.5-5.1c2.9-1.2,5.9-1.8,9.1-1.8c3.6,0,7,0.8,10.2,2.3
		c2.3,1.1,4.3,2.4,6,4.1l-4,3.7c-1.2-1.1-2.6-2.2-4.1-3c-2.6-1.3-5.2-2-7.9-2c-2.5,0-4.8,0.5-7,1.4s-4.2,2.3-5.8,4s-2.9,3.7-3.8,5.9
		c-0.9,2.2-1.4,4.6-1.4,7.1c0,2.3,0.4,4.6,1.3,6.8s2.2,4.2,3.8,6s3.5,3.2,5.7,4.2s4.4,1.5,6.8,1.5c1.8,0,3.5-0.3,5.3-1
		c1.7-0.7,3.3-1.7,4.7-2.9c1.4-1.3,2.6-2.7,3.5-4.3c0.9-1.6,1.3-3.3,1.4-5.1H61.4l0,0h-1v-5.2h9.1l0,0h9.8V76.3z M114.9,80.4H106
		v8.9h-5.9v-8.9h-8.9v-5.9h8.9v-8.9h5.9v8.9h8.9V80.4z"/>
</g>
</svg>
