<?xml version="1.0" encoding="utf-8"?>
<!-- Generator: Adobe Illustrator 21.1.0, SVG Export Plug-In . SVG Version: 6.00 Build 0)  -->
<svg version="1.1" id="Layer_1" xmlns="http://www.w3.org/2000/svg" xmlns:xlink="http://www.w3.org/1999/xlink" x="0px" y="0px"
	 viewBox="0 0 150 150" style="enable-background:new 0 0 150 150;" xml:space="preserve">
<style type="text/css">
	.st0{fill:#169BD5;stroke:#169BD5;stroke-width:0.9827;stroke-miterlimit:10;}
	.st1{fill:#FFFFFF;stroke:#FFFFFF;stroke-miterlimit:10;}
</style>
<circle class="st0" cx="75" cy="75" r="73.7"/>
<path id="XMLID_6_" class="st1" d="M102.9,65.5H84.5V47.1c0-2.6-2.1-4.6-4.6-4.6h-9.8c-2.6,0-4.6,2.1-4.6,4.6v18.4H47.1
	c-2.6,0-4.6,2.1-4.6,4.6v9.8c0,2.6,2.1,4.6,4.6,4.6h18.4v18.4c0,2.6,2.1,4.6,4.6,4.6h9.8c2.6,0,4.6-2.1,4.6-4.6V84.5h18.4
	c2.6,0,4.6-2.1,4.6-4.6v-9.8C107.5,67.6,105.4,65.5,102.9,65.5z"/>
</svg>
