<?xml version="1.0" encoding="utf-8"?>
<!-- Generator: Adobe Illustrator 21.1.0, SVG Export Plug-In . SVG Version: 6.00 Build 0)  -->
<svg version="1.1" id="Layer_1" xmlns="http://www.w3.org/2000/svg" xmlns:xlink="http://www.w3.org/1999/xlink" x="0px" y="0px"
	 viewBox="0 0 150 150" style="enable-background:new 0 0 150 150;" xml:space="preserve">
<style type="text/css">
	.st0{fill:none;stroke:#333333;stroke-width:3.3722;stroke-miterlimit:10;}
	.st1{fill:#333333;stroke:#333333;stroke-width:3.3722;stroke-miterlimit:10;}
</style>
<path id="XMLID_1_" class="st0" d="M51.7,104.7v41.4c0,1,1,1.9,2.4,1.9h41.6c1.3,0,2.4-0.8,2.4-1.9v-41.4"/>
<line id="XMLID_2_" class="st0" x1="60.6" y1="122.9" x2="89" y2="122.9"/>
<line id="XMLID_6_" class="st0" x1="60.6" y1="132.1" x2="78.5" y2="132.1"/>
<g id="XMLID_11_">
	<ellipse id="XMLID_12_" class="st0" cx="119.8" cy="62.3" rx="4.8" ry="3.8"/>
	<path id="XMLID_16_" class="st1" d="M139.5,51.1h-27.2V36.3c0-1.6-1.6-2.9-3.7-2.9H98v20.5c0,0.6-0.6,1.1-1.4,1.1H53.1
		c-0.8,0-1.4-0.5-1.4-1.1V33.5H41c-2,0-3.7,1.3-3.7,2.9v14.8H10.2c-4.4,0-8,2.8-8,6.3v60.2c0,3.5,3.5,6.3,8,6.3h41.6v-18.2H98V124
		h41.6c4.4,0,8-2.8,8-6.3V57.4C147.5,53.9,143.8,51.1,139.5,51.1z M119.8,66.1c-2.7,0-4.8-1.7-4.8-3.8c0-2.1,2.1-3.8,4.8-3.8
		c2.7,0,4.8,1.7,4.8,3.8C124.6,64.4,122.5,66.1,119.8,66.1z"/>
	<path id="XMLID_17_" class="st0" d="M53.1,55h43.5c0.8,0,1.4-0.5,1.4-1.1V33.5V5.1C98,4.5,97.3,4,96.6,4H53.1
		c-0.8,0-1.4,0.5-1.4,1.1v28.4V54C51.7,54.6,52.4,55,53.1,55z"/>
</g>
</svg>
