<?xml version="1.0" encoding="utf-8"?>
<!-- Generator: Adobe Illustrator 21.1.0, SVG Export Plug-In . SVG Version: 6.00 Build 0)  -->
<svg version="1.1" id="Layer_1" xmlns="http://www.w3.org/2000/svg" xmlns:xlink="http://www.w3.org/1999/xlink" x="0px" y="0px"
	 viewBox="0 0 150 150" style="enable-background:new 0 0 150 150;" xml:space="preserve">
<style type="text/css">
	.st0{fill:#333333;}
</style>
<g id="XMLID_2_">
	<path id="XMLID_7_" class="st0" d="M142.5,0H7.5C3.4,0,0,3.4,0,7.5v135c0,4.1,3.4,7.5,7.5,7.5H58h24.1H104h30.8h7.8
		c4.1,0,7.5-3.4,7.5-7.5V7.5C150,3.4,146.6,0,142.5,0z M110.5,82l-10,4l4,10c1.2,3-0.3,6.3-3.2,7.5c-3,1.2-6.3-0.3-7.5-3.2l-4-10
		l-15,5.9l4,10c1.2,3-0.3,6.3-3.2,7.5l0,0c-3,1.2-6.3-0.3-7.5-3.2l-4-10l-10,4c-3,1.2-6.3-0.3-7.5-3.2l0,0c-1.2-3,0.3-6.3,3.2-7.5
		l10-4l-5.9-15l-10,4c-3,1.2-6.3-0.3-7.5-3.2c-1.2-3,0.3-6.3,3.2-7.5l10-4l-4-10c-1.2-3,0.3-6.3,3.2-7.5c3-1.2,6.3,0.3,7.5,3.2l4,10
		l15-5.9l-4-10c-1.2-3,0.3-6.3,3.2-7.5l0,0c3-1.2,6.3,0.3,7.5,3.2l4,10l10-4c3-1.2,6.3,0.3,7.5,3.2c1.2,3-0.3,6.3-3.2,7.5l-10,4
		l5.9,15l10-4c3-1.2,6.3,0.3,7.5,3.2C114.9,77.5,113.4,80.8,110.5,82z"/>
	
		<rect id="XMLID_11_" x="66.9" y="67" transform="matrix(0.9297 -0.3684 0.3684 0.9297 -22.3794 32.8992)" class="st0" width="16.1" height="16.1"/>
</g>
</svg>
