<?xml version="1.0" encoding="utf-8"?>
<!-- Generator: Adobe Illustrator 21.1.0, SVG Export Plug-In . SVG Version: 6.00 Build 0)  -->
<svg version="1.1" id="Layer_1" xmlns="http://www.w3.org/2000/svg" xmlns:xlink="http://www.w3.org/1999/xlink" x="0px" y="0px"
	 viewBox="0 0 150 150" style="enable-background:new 0 0 150 150;" xml:space="preserve">
<style type="text/css">
	.st0{fill:#333333;}
</style>
<path class="st0" d="M20.5,63.2"/>
<path class="st0" d="M20.5,63.2"/>
<path class="st0" d="M142,44.3c-4.7,1.4-9.3,2.3-9.3,2.3s9.6-5,13.8-10.9c2.2-3.1,1.3-3.9-1-2.6c-3.5,2-11.1,4.9-16.5,6.8
	c-4.9-8.5-14-14.3-24.5-14.3c-14.6,0-26.6,11.1-28,25.3c-0.7,3.2-1.3,6.9-1.8,11.5C73,77.8,19.3,52.3,4.1,43.2
	C0.4,41,5,64.8,22.6,76.4c5.3,3.5-10.1-2.2-13.7-3.5c-0.7-0.2-0.4,2-0.4,2s1.6,18.8,15.9,22c10.1,2.3-4.8,1.8-10.8,0.1
	c-0.9-0.2,0.1,2.7,0.1,2.7s7.5,16.3,20.9,15.4c3.4-0.2-8.2,9.1-28.9,10.7c-8.6,0.7,4.5,4.7,6.5,5c30.4,5.1,110.6,7.9,119.8-70
	l0.3-4.5c1.2-0.7,2.5-1.5,3.6-2.3c2.5-1.9,7.1-5.2,12-10C152.4,39.9,147.6,42.7,142,44.3z"/>
</svg>
