<?xml version="1.0" encoding="utf-8"?>
<!-- Generator: Adobe Illustrator 21.1.0, SVG Export Plug-In . SVG Version: 6.00 Build 0)  -->
<svg version="1.1" id="Layer_1" xmlns="http://www.w3.org/2000/svg" xmlns:xlink="http://www.w3.org/1999/xlink" x="0px" y="0px"
	 viewBox="0 0 150 150" style="enable-background:new 0 0 150 150;" xml:space="preserve">
<style type="text/css">
	.st0{fill:#333333;}
</style>
<g id="XMLID_12_">
	<path id="XMLID_19_" class="st0" d="M102.5,50.3c1.4,0,2.7,0.1,4.1,0.2C103.3,29,81.2,12.4,54.5,12.4c-29,0-52.6,19.5-52.6,43.6
		c0,14.3,8.3,27,21.2,35L19,105.1L36.4,97c5.6,1.7,11.7,2.6,18,2.6c1.4,0,2.7,0,4-0.1c-1.3-3.5-2-7.2-2-11
		C56.5,67.4,77.1,50.3,102.5,50.3z M71.8,34.3c3.8,0,6.8,3,6.8,6.8s-3,6.8-6.8,6.8s-6.8-3-6.8-6.8S68.1,34.3,71.8,34.3z M36.9,47.9
		c-3.8,0-6.8-3-6.8-6.8s3-6.8,6.8-6.8s6.8,3,6.8,6.8S40.6,47.9,36.9,47.9z"/>
	<path id="XMLID_23_" class="st0" d="M148.1,89c0-20-19.6-36.3-43.8-36.3S60.5,69,60.5,89s19.6,36.3,43.8,36.3
		c5.3,0,10.4-0.8,15.1-2.2l14.5,6.7l-3.4-11.7C141.2,111.4,148.1,100.9,148.1,89z M89.1,82.5c-3.2,0-5.7-2.6-5.7-5.7
		s2.6-5.7,5.7-5.7s5.7,2.6,5.7,5.7S92.3,82.5,89.1,82.5z M118.5,82.5c-3.2,0-5.7-2.6-5.7-5.7s2.6-5.7,5.7-5.7c3.2,0,5.7,2.6,5.7,5.7
		S121.7,82.5,118.5,82.5z"/>
</g>
</svg>
